# xmcd
#
# Track frame offsets:
#	150
#	9938
#	27213
#	39245
#	58938
#	78158
#	87203
#	103325
#	121163
#	132630
#	150410
#	160203
#
# Disc length: 2315 seconds
#
# Revision: 0
# Processed by: cddbd v1.5PL3 Copyright (c) Steve Scherf et al.
# Submitted via: dBpowerAMP V4.0
#
DISCID=8a09090c
DTITLE=Linda Gail Lewis - I`ll Take Memphis
DYEAR=1992
DGENRE=Country
TTITLE0=I Know What You`ve Been Up To
TTITLE1=He Loved Me Much Too Much
TTITLE2=Sexy Ways
TTITLE3=I`ll Take Memphis
TTITLE4=Wait Till I Get You In My Dreams
TTITLE5=Earth Up Above
TTITLE6=Do You Know
TTITLE7=Hey Lady
TTITLE8=Hang Up My Rock`n`Roll Shoes
TTITLE9=Are You Breakin` A Heart Over Me
TTITLE10=Sweet Thang
TTITLE11=I Ain`t Ready To Grow Up
EXTD=
EXTT0=
EXTT1=
EXTT2=
EXTT3=
EXTT4=
EXTT5=
EXTT6=
EXTT7=
EXTT8=
EXTT9=
EXTT10=
EXTT11=
PLAYORDER=
